<?xml version="1.0" encoding="iso-8859-1"?>
<!-- Uploaded to: SVG Repo, www.svgrepo.com, Generator: SVG Repo Mixer Tools -->
<svg fill="#82b808" height="50px" width="50px" version="1.1" id="Layer_1" xmlns="http://www.w3.org/2000/svg" xmlns:xlink="http://www.w3.org/1999/xlink" 
	 viewBox="0 0 511.999 511.999" xml:space="preserve">
<g>
	<g>
		<path d="M444.953,69.372l-15.716-15.716l5.239-5.239c8.679-8.679,8.679-22.751,0-31.43c-8.678-8.679-22.749-8.679-31.43,0
			l-5.239,5.238L382.093,6.509C377.927,2.341,372.273,0,366.379,0c-5.896,0-11.548,2.341-15.714,6.509L203.988,153.184
			c-4.168,4.168-6.509,9.822-6.509,15.716c0,5.894,2.341,11.548,6.509,15.714l62.863,62.859c4.34,4.34,10.028,6.51,15.714,6.51
			c5.688,0,11.376-2.171,15.714-6.51l66.699-66.699c14.65,20.959,22.571,45.833,22.571,71.938
			c0,69.441-56.496,125.938-125.939,125.938c-37.445,0.001-72.03-16.107-96.03-44.448h65.343c12.274,0,22.225-9.951,22.225-22.225
			c0-12.274-9.951-22.225-22.225-22.225h-87.857H82.76c-12.274,0-22.225,9.951-22.225,22.225c0,12.274,9.951,22.225,22.225,22.225
			h38.083v7.408c0,4.814,1.563,9.497,4.455,13.348c28.028,37.317,68.801,60.901,114.154,66.715v45.876h-81.49
			c-12.274,0-22.225,9.951-22.225,22.225c0,12.274,9.951,22.225,22.225,22.225h103.715h103.718c12.274,0,22.225-9.951,22.225-22.225
			c0-12.274-9.951-22.225-22.225-22.225h-81.493v-45.909c83.458-10.954,148.097-82.532,148.097-168.929
			c0-38.019-12.376-74.128-35.207-103.75l48.161-48.161C453.633,92.122,453.633,78.051,444.953,69.372z"/>
	</g>
</g>
</svg>