<!DOCTYPE svg PUBLIC "-//W3C//DTD SVG 1.1//EN" "http://www.w3.org/Graphics/SVG/1.1/DTD/svg11.dtd">
<!-- Uploaded to: SVG Repo, www.svgrepo.com, Transformed by: SVG Repo Mixer Tools -->
<svg fill="#e3e3e3" version="1.1" id="Capa_1" xmlns="http://www.w3.org/2000/svg" xmlns:xlink="http://www.w3.org/1999/xlink" width="800px" height="800px" viewBox="0 0 88.967 88.967" xml:space="preserve" stroke="#e3e3e3">
<g id="SVGRepo_bgCarrier" stroke-width="0"/>
<g id="SVGRepo_tracerCarrier" stroke-linecap="round" stroke-linejoin="round"/>
<g id="SVGRepo_iconCarrier"> <g> <g> <circle cx="64.83" cy="59.486" r="3.428"/> <rect x="61.908" y="64.703" width="5.844" height="14.977"/> <path d="M65.05,46.492v-3.344c0,0,0.008-25.992,0-26.07l-3.746-7.59l3.324-6.32c0.354-0.67,0.33-1.477-0.062-2.123 C64.175,0.397,63.473,0,62.717,0H5.301C4.11,0,3.143,0.967,3.143,2.162l0.052,80.305h10.369V16.842H7.461V4.32h51.68l-2.186,4.153 c-0.327,0.623-0.33,1.369-0.006,1.998l3.295,6.371H17.815v65.625h7.915h6.818h14.526h2.236c3.866,4,9.274,6.5,15.264,6.5 c11.719,0,21.25-9.531,21.25-21.25C85.824,56.16,76.547,46.746,65.05,46.492z M64.574,81.967c-7.856,0-14.25-6.393-14.25-14.25 s6.394-14.25,14.25-14.25c7.857,0,14.25,6.393,14.25,14.25S72.432,81.967,64.574,81.967z"/> </g> </g> </g>
</svg>